<svg width="64" height="64" viewBox="0 0 64 64" fill="none" xmlns="http://www.w3.org/2000/svg">
<rect width="64" height="64" rx="32" fill="#1D1F36"/>
<path d="M25.9016 24.1047C25.9016 27.4547 28.6455 30.1722 32.0286 30.1722C35.4114 30.1722 38.1555 27.455 38.1555 24.1047C38.1555 20.7547 35.4114 18 32.0286 18C28.6458 18 25.9016 20.7175 25.9016 24.1047Z" fill="white"/>
<path d="M32.0285 32.6074C25.9466 32.6074 21 35.9541 21 41.5654L21 43.5624C23.5545 45.0587 27.6496 45.9566 32.0285 45.9566C36.4075 45.9566 40.5027 45.0587 43.0571 43.5624V41.5654C43.0571 35.9541 38.1105 32.6074 32.0285 32.6074Z" fill="white"/>
</svg>
